<?xml version="1.0" standalone="yes"?>
<svg width="45mm" height="45mm" viewBox="0,0,9,9" xmlns="http://www.w3.org/2000/svg">
	<rect width="1" height="1" x="0" y="0" fill="rgba(255, 255, 255, 1.0)" id="box0-0"/>
	<rect width="1" height="1" x="1" y="0" fill="rgba(255, 255, 255, 1.0)" id="box1-0"/>
	<rect width="1" height="1" x="2" y="0" fill="rgba(255, 255, 255, 1.0)" id="box2-0"/>
	<rect width="1" height="1" x="3" y="0" fill="rgba(255, 255, 255, 1.0)" id="box3-0"/>
	<rect width="1" height="1" x="4" y="0" fill="rgba(0, 0, 0, 1.0)" id="box4-0"/>
	<rect width="1" height="1" x="5" y="0" fill="rgba(255, 255, 255, 1.0)" id="box5-0"/>
	<rect width="1" height="1" x="6" y="0" fill="rgba(0, 0, 0, 1.0)" id="box6-0"/>
	<rect width="1" height="1" x="7" y="0" fill="rgba(255, 255, 255, 1.0)" id="box7-0"/>
	<rect width="1" height="1" x="8" y="0" fill="rgba(0, 0, 0, 1.0)" id="box8-0"/>
	<rect width="1" height="1" x="0" y="1" fill="rgba(255, 255, 255, 1.0)" id="box0-1"/>
	<rect width="1" height="1" x="1" y="1" fill="rgba(0, 0, 0, 1.0)" id="box1-1"/>
	<rect width="1" height="1" x="2" y="1" fill="rgba(0, 0, 0, 1.0)" id="box2-1"/>
	<rect width="1" height="1" x="3" y="1" fill="rgba(0, 0, 0, 1.0)" id="box3-1"/>
	<rect width="1" height="1" x="4" y="1" fill="rgba(0, 0, 0, 1.0)" id="box4-1"/>
	<rect width="1" height="1" x="5" y="1" fill="rgba(0, 0, 0, 1.0)" id="box5-1"/>
	<rect width="1" height="1" x="6" y="1" fill="rgba(0, 0, 0, 1.0)" id="box6-1"/>
	<rect width="1" height="1" x="7" y="1" fill="rgba(0, 0, 0, 1.0)" id="box7-1"/>
	<rect width="1" height="1" x="8" y="1" fill="rgba(0, 0, 0, 1.0)" id="box8-1"/>
	<rect width="1" height="1" x="0" y="2" fill="rgba(255, 255, 255, 1.0)" id="box0-2"/>
	<rect width="1" height="1" x="1" y="2" fill="rgba(0, 0, 0, 1.0)" id="box1-2"/>
	<rect width="1" height="1" x="2" y="2" fill="rgba(255, 255, 255, 1.0)" id="box2-2"/>
	<rect width="1" height="1" x="3" y="2" fill="rgba(255, 255, 255, 1.0)" id="box3-2"/>
	<rect width="1" height="1" x="4" y="2" fill="rgba(255, 255, 255, 1.0)" id="box4-2"/>
	<rect width="1" height="1" x="5" y="2" fill="rgba(255, 255, 255, 1.0)" id="box5-2"/>
	<rect width="1" height="1" x="6" y="2" fill="rgba(255, 255, 255, 1.0)" id="box6-2"/>
	<rect width="1" height="1" x="7" y="2" fill="rgba(0, 0, 0, 1.0)" id="box7-2"/>
	<rect width="1" height="1" x="8" y="2" fill="rgba(0, 0, 0, 1.0)" id="box8-2"/>
	<rect width="1" height="1" x="0" y="3" fill="rgba(255, 255, 255, 1.0)" id="box0-3"/>
	<rect width="1" height="1" x="1" y="3" fill="rgba(0, 0, 0, 1.0)" id="box1-3"/>
	<rect width="1" height="1" x="2" y="3" fill="rgba(255, 255, 255, 1.0)" id="box2-3"/>
	<rect width="1" height="1" x="3" y="3" fill="rgba(255, 255, 255, 1.0)" id="box3-3"/>
	<rect width="1" height="1" x="4" y="3" fill="rgba(255, 255, 255, 1.0)" id="box4-3"/>
	<rect width="1" height="1" x="5" y="3" fill="rgba(0, 0, 0, 1.0)" id="box5-3"/>
	<rect width="1" height="1" x="6" y="3" fill="rgba(255, 255, 255, 1.0)" id="box6-3"/>
	<rect width="1" height="1" x="7" y="3" fill="rgba(0, 0, 0, 1.0)" id="box7-3"/>
	<rect width="1" height="1" x="8" y="3" fill="rgba(0, 0, 0, 1.0)" id="box8-3"/>
	<rect width="1" height="1" x="0" y="4" fill="rgba(0, 0, 0, 1.0)" id="box0-4"/>
	<rect width="1" height="1" x="1" y="4" fill="rgba(0, 0, 0, 1.0)" id="box1-4"/>
	<rect width="1" height="1" x="2" y="4" fill="rgba(255, 255, 255, 1.0)" id="box2-4"/>
	<rect width="1" height="1" x="3" y="4" fill="rgba(0, 0, 0, 1.0)" id="box3-4"/>
	<rect width="1" height="1" x="4" y="4" fill="rgba(255, 255, 255, 1.0)" id="box4-4"/>
	<rect width="1" height="1" x="5" y="4" fill="rgba(255, 255, 255, 1.0)" id="box5-4"/>
	<rect width="1" height="1" x="6" y="4" fill="rgba(255, 255, 255, 1.0)" id="box6-4"/>
	<rect width="1" height="1" x="7" y="4" fill="rgba(0, 0, 0, 1.0)" id="box7-4"/>
	<rect width="1" height="1" x="8" y="4" fill="rgba(255, 255, 255, 1.0)" id="box8-4"/>
	<rect width="1" height="1" x="0" y="5" fill="rgba(255, 255, 255, 1.0)" id="box0-5"/>
	<rect width="1" height="1" x="1" y="5" fill="rgba(0, 0, 0, 1.0)" id="box1-5"/>
	<rect width="1" height="1" x="2" y="5" fill="rgba(255, 255, 255, 1.0)" id="box2-5"/>
	<rect width="1" height="1" x="3" y="5" fill="rgba(255, 255, 255, 1.0)" id="box3-5"/>
	<rect width="1" height="1" x="4" y="5" fill="rgba(0, 0, 0, 1.0)" id="box4-5"/>
	<rect width="1" height="1" x="5" y="5" fill="rgba(255, 255, 255, 1.0)" id="box5-5"/>
	<rect width="1" height="1" x="6" y="5" fill="rgba(255, 255, 255, 1.0)" id="box6-5"/>
	<rect width="1" height="1" x="7" y="5" fill="rgba(0, 0, 0, 1.0)" id="box7-5"/>
	<rect width="1" height="1" x="8" y="5" fill="rgba(0, 0, 0, 1.0)" id="box8-5"/>
	<rect width="1" height="1" x="0" y="6" fill="rgba(0, 0, 0, 1.0)" id="box0-6"/>
	<rect width="1" height="1" x="1" y="6" fill="rgba(0, 0, 0, 1.0)" id="box1-6"/>
	<rect width="1" height="1" x="2" y="6" fill="rgba(255, 255, 255, 1.0)" id="box2-6"/>
	<rect width="1" height="1" x="3" y="6" fill="rgba(255, 255, 255, 1.0)" id="box3-6"/>
	<rect width="1" height="1" x="4" y="6" fill="rgba(255, 255, 255, 1.0)" id="box4-6"/>
	<rect width="1" height="1" x="5" y="6" fill="rgba(255, 255, 255, 1.0)" id="box5-6"/>
	<rect width="1" height="1" x="6" y="6" fill="rgba(255, 255, 255, 1.0)" id="box6-6"/>
	<rect width="1" height="1" x="7" y="6" fill="rgba(0, 0, 0, 1.0)" id="box7-6"/>
	<rect width="1" height="1" x="8" y="6" fill="rgba(0, 0, 0, 1.0)" id="box8-6"/>
	<rect width="1" height="1" x="0" y="7" fill="rgba(0, 0, 0, 1.0)" id="box0-7"/>
	<rect width="1" height="1" x="1" y="7" fill="rgba(0, 0, 0, 1.0)" id="box1-7"/>
	<rect width="1" height="1" x="2" y="7" fill="rgba(0, 0, 0, 1.0)" id="box2-7"/>
	<rect width="1" height="1" x="3" y="7" fill="rgba(0, 0, 0, 1.0)" id="box3-7"/>
	<rect width="1" height="1" x="4" y="7" fill="rgba(0, 0, 0, 1.0)" id="box4-7"/>
	<rect width="1" height="1" x="5" y="7" fill="rgba(0, 0, 0, 1.0)" id="box5-7"/>
	<rect width="1" height="1" x="6" y="7" fill="rgba(0, 0, 0, 1.0)" id="box6-7"/>
	<rect width="1" height="1" x="7" y="7" fill="rgba(0, 0, 0, 1.0)" id="box7-7"/>
	<rect width="1" height="1" x="8" y="7" fill="rgba(255, 255, 255, 1.0)" id="box8-7"/>
	<rect width="1" height="1" x="0" y="8" fill="rgba(255, 255, 255, 1.0)" id="box0-8"/>
	<rect width="1" height="1" x="1" y="8" fill="rgba(255, 255, 255, 1.0)" id="box1-8"/>
	<rect width="1" height="1" x="2" y="8" fill="rgba(0, 0, 0, 1.0)" id="box2-8"/>
	<rect width="1" height="1" x="3" y="8" fill="rgba(0, 0, 0, 1.0)" id="box3-8"/>
	<rect width="1" height="1" x="4" y="8" fill="rgba(0, 0, 0, 1.0)" id="box4-8"/>
	<rect width="1" height="1" x="5" y="8" fill="rgba(0, 0, 0, 1.0)" id="box5-8"/>
	<rect width="1" height="1" x="6" y="8" fill="rgba(0, 0, 0, 1.0)" id="box6-8"/>
	<rect width="1" height="1" x="7" y="8" fill="rgba(0, 0, 0, 1.0)" id="box7-8"/>
	<rect width="1" height="1" x="8" y="8" fill="rgba(255, 255, 255, 1.0)" id="box8-8"/>
</svg>
